<?xml version="1.0" standalone="no"?>
<!DOCTYPE svg PUBLIC "-//W3C//DTD SVG 20010904//EN"
 "http://www.w3.org/TR/2001/REC-SVG-20010904/DTD/svg10.dtd">
<svg version="1.0" xmlns="http://www.w3.org/2000/svg"
 width="512.000000pt" height="512.000000pt" viewBox="0 0 512.000000 512.000000"
 preserveAspectRatio="xMidYMid meet">
<metadata>
Created by potrace 1.14, written by Peter Selinger 2001-2017
</metadata>
<g transform="translate(0.000000,512.000000) scale(0.100000,-0.100000)"
fill="#000000" stroke="none">
<path d="M2467 5024 c-1 -1 -46 -4 -99 -8 -53 -3 -103 -8 -110 -11 -7 -2 -36
-6 -63 -9 -28 -3 -57 -7 -65 -10 -8 -3 -33 -8 -55 -11 -48 -7 -251 -60 -303
-79 -214 -81 -338 -139 -483 -226 -582 -351 -992 -925 -1138 -1590 -12 -52
-23 -120 -27 -150 -3 -30 -7 -61 -10 -69 -7 -20 -18 -223 -17 -316 0 -89 11
-272 18 -295 2 -8 6 -37 10 -65 3 -27 15 -93 27 -144 161 -746 664 -1381 1352
-1706 107 -50 145 -67 156 -69 6 -1 94 -33 125 -45 42 -17 182 -56 240 -67 11
-2 43 -8 70 -13 138 -27 294 -43 430 -44 115 0 308 10 350 18 11 3 38 7 60 10
608 85 1201 439 1591 950 182 239 329 538 409 832 223 819 21 1667 -548 2304
-79 89 -222 225 -270 258 -12 8 -24 18 -27 21 -14 16 -130 100 -139 100 -6 0
-11 4 -11 8 0 5 -10 14 -22 20 -13 7 -41 23 -63 37 -335 208 -723 334 -1109
361 -92 6 -275 11 -279 8z"/>
</g>
</svg>
